<svg width="88" height="20" viewBox="0 0 88 20" fill="none" xmlns="http://www.w3.org/2000/svg">
<path d="M14.2907 4.55068C13.7585 3.85876 13.0843 3.32652 12.2682 2.95395C11.4521 2.58138 10.6094 2.39509 9.74004 2.39509C8.67556 2.39509 7.70865 2.59912 6.83932 3.00717C5.98773 3.39748 5.25146 3.9386 4.63051 4.63051C4.0273 5.32243 3.55716 6.13853 3.22007 7.07883C2.88298 8.00138 2.71444 8.99491 2.71444 10.0594C2.71444 11.0529 2.87411 11.9932 3.19346 12.8803C3.5128 13.7674 3.97408 14.548 4.57729 15.2221C5.1805 15.8963 5.91677 16.4286 6.7861 16.8189C7.65543 17.2092 8.64008 17.4043 9.74004 17.4043C10.8223 17.4043 11.7714 17.1826 12.5875 16.739C13.4037 16.2955 14.0956 15.6746 14.6633 14.8762L16.8189 16.4995C16.6769 16.6947 16.4286 16.9786 16.0737 17.3511C15.7189 17.7059 15.2488 18.0696 14.6633 18.4422C14.0778 18.797 13.3682 19.1075 12.5343 19.3736C11.7182 19.6575 10.769 19.7994 9.68682 19.7994C8.19654 19.7994 6.84819 19.5156 5.64177 18.9479C4.4531 18.3801 3.43297 17.635 2.58138 16.7124C1.74753 15.7899 1.10884 14.752 0.665304 13.5988C0.221768 12.4279 0 11.2481 0 10.0594C0 8.60459 0.239509 7.26512 0.718528 6.04096C1.19755 4.79906 1.86285 3.73457 2.71444 2.8475C3.58377 1.94269 4.62164 1.2419 5.82806 0.74514C7.03448 0.24838 8.36508 0 9.81988 0C11.0618 0 12.2771 0.239509 13.4657 0.718527C14.6722 1.19755 15.6568 1.93382 16.4197 2.92734L14.2907 4.55068Z" fill="#376AED"/>
<path d="M27.3955 0.479019H29.9502V16.9253H38.5992V19.3204H27.3955V0.479019Z" fill="#376AED"/>
<path d="M50.891 0.479019V12.0287C50.891 12.6142 50.9708 13.2262 51.1305 13.8649C51.2902 14.4859 51.5563 15.0625 51.9289 15.5947C52.3015 16.127 52.7893 16.5616 53.3926 16.8987C53.9958 17.2358 54.7409 17.4043 55.628 17.4043C56.515 17.4043 57.2602 17.2358 57.8634 16.8987C58.4666 16.5616 58.9545 16.127 59.3271 15.5947C59.6996 15.0625 59.9657 14.4859 60.1254 13.8649C60.2851 13.2262 60.3649 12.6142 60.3649 12.0287V0.479019H62.9197V12.4279C62.9197 13.5278 62.7334 14.5302 62.3608 15.435C61.9883 16.3221 61.4738 17.0939 60.8173 17.7503C60.1609 18.4067 59.3892 18.9124 58.5021 19.2672C57.615 19.622 56.657 19.7994 55.628 19.7994C54.599 19.7994 53.6409 19.622 52.7539 19.2672C51.8668 18.9124 51.095 18.4067 50.4386 17.7503C49.7822 17.0939 49.2677 16.3221 48.8951 15.435C48.5225 14.5302 48.3362 13.5278 48.3362 12.4279V0.479019H50.891Z" fill="#376AED"/>
<path d="M74.9067 0.479019H81.4533C82.2694 0.479019 83.0234 0.576597 83.7154 0.771752C84.425 0.966907 85.0282 1.25964 85.525 1.64995C86.0395 2.02252 86.4387 2.51041 86.7225 3.11362C87.0241 3.69909 87.1749 4.391 87.1749 5.18937C87.1749 6.2716 86.8733 7.15867 86.2701 7.85058C85.6669 8.52476 84.8863 9.02152 83.9283 9.34086V9.39409C84.496 9.42957 85.0282 9.58037 85.525 9.8465C86.0217 10.0949 86.4475 10.432 86.8024 10.8578C87.1749 11.2658 87.4677 11.7448 87.6806 12.2948C87.8935 12.8448 87.9999 13.4391 87.9999 14.0778C87.9999 14.9294 87.8225 15.6834 87.4677 16.3399C87.1306 16.9786 86.6604 17.5197 86.0572 17.9632C85.454 18.4067 84.7532 18.7438 83.9549 18.9745C83.1565 19.2051 82.296 19.3204 81.3735 19.3204H74.9067V0.479019ZM77.4615 8.30299H80.9477C81.4267 8.30299 81.8791 8.25864 82.3049 8.16993C82.7307 8.06348 83.1033 7.89494 83.4226 7.6643C83.742 7.43366 83.9903 7.14093 84.1678 6.7861C84.3629 6.43127 84.4605 5.9966 84.4605 5.4821C84.4605 4.73696 84.221 4.0894 83.742 3.53941C83.263 2.98943 82.5089 2.71444 81.4799 2.71444H77.4615V8.30299ZM77.4615 17.085H81.2138C81.6041 17.085 82.0299 17.0495 82.4912 16.9786C82.9702 16.8898 83.4138 16.7302 83.8218 16.4995C84.2299 16.2512 84.5758 15.9229 84.8597 15.5149C85.1435 15.1068 85.2855 14.5657 85.2855 13.8915C85.2855 12.7738 84.9218 11.94 84.1944 11.39C83.467 10.8223 82.4823 10.5384 81.2404 10.5384H77.4615V17.085Z" fill="#376AED"/>
</svg>
