<svg width="34" height="34" viewBox="0 0 34 34" fill="none" xmlns="http://www.w3.org/2000/svg">
<path d="M24.0833 22.9763L18.1068 16.9998L24.0833 11.0233C24.3889 10.7177 24.3889 10.2222 24.0833 9.91653C23.7776 9.61089 23.2821 9.61089 22.9765 9.91653L17 15.893L11.0235 9.91653C10.7179 9.61089 10.2224 9.61089 9.91673 9.91653C9.61109 10.2222 9.61109 10.7177 9.91673 11.0233L15.8932 16.9998L9.91673 22.9763C9.61109 23.2819 9.61109 23.7774 9.91673 24.0831C10.2224 24.3887 10.7179 24.3887 11.0235 24.0831L17 18.1066L22.9765 24.0831C23.2821 24.3887 23.7776 24.3887 24.0833 24.0831C24.3889 23.7774 24.3889 23.2819 24.0833 22.9763Z" fill="white"/>
</svg>
