<svg width="91" height="20" viewBox="0 0 91 20" fill="none" xmlns="http://www.w3.org/2000/svg">
<path d="M0 0.477905H6.53136C7.34557 0.477905 8.09782 0.575255 8.78813 0.769957C9.49614 0.964658 10.0979 1.25671 10.5935 1.64611C11.1069 2.01782 11.5051 2.50457 11.7883 3.10638C12.0892 3.69048 12.2397 4.38079 12.2397 5.1773C12.2397 6.25701 11.9388 7.14201 11.337 7.83232C10.7351 8.50493 9.95634 9.00053 9.00053 9.31914V9.37224C9.56694 9.40763 10.0979 9.55809 10.5935 9.82359C11.0891 10.0714 11.514 10.4077 11.868 10.8325C12.2397 11.2396 12.5317 11.7175 12.7441 12.2662C12.9565 12.8149 13.0627 13.4079 13.0627 14.0451C13.0627 14.8947 12.8857 15.6469 12.5317 16.3018C12.1954 16.9391 11.7264 17.4789 11.1245 17.9214C10.5227 18.3639 9.82359 18.7002 9.02708 18.9303C8.23057 19.1604 7.37212 19.2755 6.45171 19.2755H0V0.477905ZM2.54882 8.28367H6.0269C6.50481 8.28367 6.95616 8.23942 7.38097 8.15092C7.80577 8.04472 8.17747 7.87657 8.49608 7.64647C8.81468 7.41637 9.06248 7.12431 9.23948 6.77031C9.43418 6.41631 9.53154 5.98265 9.53154 5.46935C9.53154 4.72594 9.29258 4.07989 8.81468 3.53118C8.33677 2.98248 7.58452 2.70812 6.55791 2.70812H2.54882V8.28367ZM2.54882 17.0453H6.29241C6.68181 17.0453 7.10661 17.0099 7.56682 16.9391C8.04472 16.8506 8.48723 16.6913 8.89433 16.4611C9.30143 16.2133 9.64659 15.8859 9.92979 15.4788C10.213 15.0717 10.3546 14.5318 10.3546 13.8592C10.3546 12.7441 9.99174 11.9122 9.26603 11.3635C8.54033 10.7971 7.55797 10.5139 6.31896 10.5139H2.54882V17.0453Z" fill="white"/>
<path d="M24.193 0.477905H26.7418V16.886H35.3707V19.2755H24.193V0.477905Z" fill="white"/>
<path d="M54.0591 19.7534C52.6253 19.7534 51.3067 19.5056 50.1031 19.01C48.8995 18.4967 47.864 17.7975 46.9967 16.9125C46.1471 16.0275 45.4745 14.9832 44.9789 13.7796C44.501 12.576 44.262 11.275 44.262 9.87669C44.262 8.47838 44.501 7.17741 44.9789 5.9738C45.4745 4.77019 46.1471 3.72588 46.9967 2.84088C47.864 1.95587 48.8995 1.26556 50.1031 0.769957C51.3067 0.256652 52.6253 0 54.0591 0C55.4928 0 56.8114 0.256652 58.015 0.769957C59.2186 1.26556 60.2453 1.95587 61.0949 2.84088C61.9622 3.72588 62.6348 4.77019 63.1127 5.9738C63.6083 7.17741 63.8561 8.47838 63.8561 9.87669C63.8561 11.275 63.6083 12.576 63.1127 13.7796C62.6348 14.9832 61.9622 16.0275 61.0949 16.9125C60.2453 17.7975 59.2186 18.4967 58.015 19.01C56.8114 19.5056 55.4928 19.7534 54.0591 19.7534ZM54.0591 17.3639C55.1388 17.3639 56.1123 17.1692 56.9796 16.7798C57.8469 16.3726 58.5903 15.8328 59.2098 15.1602C59.8293 14.4876 60.3072 13.6999 60.6435 12.7972C60.9798 11.8768 61.148 10.9033 61.148 9.87669C61.148 8.85008 60.9798 7.88542 60.6435 6.98271C60.3072 6.0623 59.8293 5.2658 59.2098 4.59319C58.5903 3.92059 57.8469 3.38958 56.9796 3.00018C56.1123 2.59307 55.1388 2.38952 54.0591 2.38952C52.9793 2.38952 52.0058 2.59307 51.1385 3.00018C50.2712 3.38958 49.5278 3.92059 48.9083 4.59319C48.2888 5.2658 47.8109 6.0623 47.4746 6.98271C47.1383 7.88542 46.9701 8.85008 46.9701 9.87669C46.9701 10.9033 47.1383 11.8768 47.4746 12.7972C47.8109 13.6999 48.2888 14.4876 48.9083 15.1602C49.5278 15.8328 50.2712 16.3726 51.1385 16.7798C52.0058 17.1692 52.9793 17.3639 54.0591 17.3639Z" fill="white"/>
<path d="M91.0001 8.76158V18.0276C90.5399 18.3108 90.0178 18.5586 89.4337 18.771C88.8496 18.9834 88.2389 19.1604 87.6017 19.302C86.9822 19.4613 86.345 19.5764 85.6901 19.6472C85.0529 19.718 84.4511 19.7534 83.8846 19.7534C82.2916 19.7534 80.8668 19.4879 79.6101 18.9569C78.371 18.4259 77.3179 17.709 76.4506 16.8063C75.601 15.9036 74.9461 14.8593 74.4859 13.6734C74.0434 12.4698 73.8221 11.2042 73.8221 9.87669C73.8221 8.47838 74.0611 7.17741 74.539 5.9738C75.0346 4.77019 75.7072 3.72588 76.5568 2.84088C77.4241 1.95587 78.4596 1.26556 79.6632 0.769957C80.8668 0.256652 82.1854 0 83.6192 0C85.3538 0 86.7698 0.221252 87.8672 0.663756C88.9646 1.08856 89.885 1.68151 90.6284 2.44262L88.823 4.38079C88.0442 3.63738 87.2211 3.12408 86.3538 2.84088C85.4865 2.53997 84.575 2.38952 83.6192 2.38952C82.5394 2.38952 81.5659 2.59307 80.6986 3.00018C79.8313 3.38958 79.0879 3.92059 78.4684 4.59319C77.8489 5.2658 77.371 6.0623 77.0347 6.98271C76.6984 7.88542 76.5302 8.85008 76.5302 9.87669C76.5302 10.9387 76.7161 11.9299 77.0878 12.8503C77.4595 13.753 77.9728 14.5407 78.6277 15.2133C79.2826 15.8859 80.0526 16.4169 80.9376 16.8063C81.8226 17.178 82.7872 17.3639 83.8316 17.3639C84.7343 17.3639 85.5839 17.2842 86.3804 17.1249C87.1946 16.9479 87.8849 16.7001 88.4513 16.3815V11.1511H84.2829V8.76158H91.0001Z" fill="white"/>
</svg>
