<svg width="162" height="82" viewBox="0 0 162 82" fill="none" xmlns="http://www.w3.org/2000/svg">
<rect width="150.013" height="45.004" rx="8" fill="#376AED"/>
<path d="M8.00071 8.70037H17.5627C18.7547 8.70037 19.856 8.84289 20.8666 9.12794C21.9031 9.41298 22.7842 9.84055 23.5097 10.4106C24.2612 10.9548 24.8443 11.6674 25.2589 12.5485C25.6994 13.4036 25.9197 14.4142 25.9197 15.5803C25.9197 17.161 25.4791 18.4567 24.5981 19.4673C23.717 20.452 22.5769 21.1776 21.1776 21.644V21.7217C22.0068 21.7736 22.7842 21.9938 23.5097 22.3825C24.2353 22.7453 24.8572 23.2376 25.3755 23.8596C25.9197 24.4556 26.3472 25.1552 26.6582 25.9585C26.9691 26.7618 27.1246 27.6299 27.1246 28.5628C27.1246 29.8066 26.8655 30.9079 26.3472 31.8667C25.8549 32.7996 25.1682 33.59 24.2871 34.2378C23.4061 34.8856 22.3825 35.378 21.2164 35.7148C20.0503 36.0517 18.7935 36.2201 17.4461 36.2201H8.00071V8.70037ZM11.7322 20.1281H16.8241C17.5238 20.1281 18.1846 20.0633 18.8065 19.9337C19.4284 19.7782 19.9726 19.5321 20.439 19.1952C20.9055 18.8583 21.2682 18.4308 21.5274 17.9125C21.8124 17.3942 21.9549 16.7594 21.9549 16.0079C21.9549 14.9195 21.6051 13.9737 20.9055 13.1704C20.2058 12.3671 19.1045 11.9654 17.6015 11.9654H11.7322V20.1281ZM11.7322 32.9551H17.2128C17.7829 32.9551 18.4048 32.9033 19.0786 32.7996C19.7782 32.67 20.4261 32.4368 21.0221 32.0999C21.6181 31.7372 22.1234 31.2578 22.538 30.6618C22.9526 30.0658 23.1599 29.2754 23.1599 28.2907C23.1599 26.6582 22.6287 25.4403 21.5662 24.637C20.5038 23.8077 19.0656 23.3931 17.2517 23.3931H11.7322V32.9551Z" fill="white"/>
<path d="M43.4194 8.70037H47.1509V32.7219H59.7836V36.2201H43.4194V8.70037Z" fill="white"/>
<path d="M87.1435 36.9198C85.0446 36.9198 83.114 36.557 81.3519 35.8314C79.5898 35.08 78.0739 34.0564 76.8042 32.7607C75.5603 31.4651 74.5756 29.9362 73.8501 28.1741C73.1504 26.412 72.8006 24.5074 72.8006 22.4603C72.8006 20.4131 73.1504 18.5085 73.8501 16.7464C74.5756 14.9843 75.5603 13.4554 76.8042 12.1598C78.0739 10.8641 79.5898 9.8535 81.3519 9.12794C83.114 8.37646 85.0446 8.00071 87.1435 8.00071C89.2425 8.00071 91.173 8.37646 92.9351 9.12794C94.6972 9.8535 96.2002 10.8641 97.444 12.1598C98.7137 13.4554 99.6984 14.9843 100.398 16.7464C101.124 18.5085 101.486 20.4131 101.486 22.4603C101.486 24.5074 101.124 26.412 100.398 28.1741C99.6984 29.9362 98.7137 31.4651 97.444 32.7607C96.2002 34.0564 94.6972 35.08 92.9351 35.8314C91.173 36.557 89.2425 36.9198 87.1435 36.9198ZM87.1435 33.4215C88.7242 33.4215 90.1494 33.1365 91.4192 32.5664C92.6889 31.9704 93.7773 31.18 94.6843 30.1953C95.5912 29.2106 96.2909 28.0575 96.7832 26.7359C97.2756 25.3884 97.5217 23.9632 97.5217 22.4603C97.5217 20.9573 97.2756 19.545 96.7832 18.2235C96.2909 16.876 95.5912 15.7099 94.6843 14.7252C93.7773 13.7405 92.6889 12.9631 91.4192 12.393C90.1494 11.797 88.7242 11.499 87.1435 11.499C85.5628 11.499 84.1376 11.797 82.8679 12.393C81.5981 12.9631 80.5098 13.7405 79.6028 14.7252C78.6958 15.7099 77.9962 16.876 77.5038 18.2235C77.0115 19.545 76.7653 20.9573 76.7653 22.4603C76.7653 23.9632 77.0115 25.3884 77.5038 26.7359C77.9962 28.0575 78.6958 29.2106 79.6028 30.1953C80.5098 31.18 81.5981 31.9704 82.8679 32.5664C84.1376 33.1365 85.5628 33.4215 87.1435 33.4215Z" fill="white"/>
<path d="M141.225 20.8277V34.3933C140.552 34.8079 139.787 35.1707 138.932 35.4816C138.077 35.7926 137.183 36.0517 136.25 36.259C135.343 36.4922 134.41 36.6607 133.452 36.7643C132.519 36.868 131.638 36.9198 130.808 36.9198C128.476 36.9198 126.39 36.5311 124.55 35.7537C122.736 34.9763 121.195 33.9268 119.925 32.6052C118.681 31.2837 117.722 29.7548 117.049 28.0186C116.401 26.2565 116.077 24.4037 116.077 22.4603C116.077 20.4131 116.427 18.5085 117.126 16.7464C117.852 14.9843 118.837 13.4554 120.08 12.1598C121.35 10.8641 122.866 9.8535 124.628 9.12794C126.39 8.37646 128.321 8.00071 130.42 8.00071C132.959 8.00071 135.032 8.32463 136.639 8.97246C138.245 9.59437 139.593 10.4625 140.681 11.5767L138.038 14.4142C136.898 13.3259 135.693 12.5744 134.423 12.1598C133.154 11.7193 131.819 11.499 130.42 11.499C128.839 11.499 127.414 11.797 126.144 12.393C124.874 12.9631 123.786 13.7405 122.879 14.7252C121.972 15.7099 121.272 16.876 120.78 18.2235C120.288 19.545 120.041 20.9573 120.041 22.4603C120.041 24.015 120.314 25.4662 120.858 26.8137C121.402 28.1352 122.153 29.2884 123.112 30.2731C124.071 31.2578 125.198 32.0352 126.494 32.6052C127.79 33.1494 129.202 33.4215 130.731 33.4215C132.052 33.4215 133.296 33.3049 134.462 33.0717C135.654 32.8126 136.665 32.4498 137.494 31.9833V24.326H131.391V20.8277H141.225Z" fill="white"/>
<path d="M53.6606 59.7276C52.8832 58.717 51.8985 57.9396 50.7065 57.3955C49.5145 56.8513 48.2837 56.5792 47.0139 56.5792C45.4591 56.5792 44.0469 56.8772 42.7771 57.4732C41.5333 58.0433 40.4579 58.8336 39.5509 59.8442C38.6699 60.8549 37.9832 62.0469 37.4908 63.4203C36.9985 64.7677 36.7523 66.2189 36.7523 67.7737C36.7523 69.2248 36.9855 70.5982 37.452 71.8939C37.9184 73.1895 38.5921 74.3297 39.4732 75.3144C40.3542 76.2991 41.4296 77.0765 42.6994 77.6466C43.9691 78.2167 45.4073 78.5017 47.0139 78.5017C48.5946 78.5017 49.981 78.1778 51.173 77.53C52.365 76.8821 53.3756 75.9752 54.2048 74.8091L57.3533 77.1801C57.146 77.4652 56.7832 77.8798 56.2649 78.424C55.7466 78.9422 55.06 79.4735 54.2048 80.0176C53.3497 80.5359 52.3132 80.9894 51.0952 81.3781C49.9032 81.7927 48.5169 82 46.9362 82C44.7595 82 42.7901 81.5854 41.028 80.7562C39.2918 79.9269 37.8018 78.8386 36.558 77.4911C35.34 76.1436 34.4072 74.6277 33.7593 72.9433C33.1115 71.2331 32.7876 69.5098 32.7876 67.7737C32.7876 65.6488 33.1374 63.6923 33.8371 61.9043C34.5367 60.0904 35.5085 58.5356 36.7523 57.24C38.0221 55.9184 39.538 54.8948 41.3001 54.1693C43.0622 53.4437 45.0056 53.0809 47.1305 53.0809C48.9444 53.0809 50.7195 53.4307 52.4557 54.1304C54.2178 54.83 55.656 55.9054 56.7702 57.3566L53.6606 59.7276Z" fill="#376AED"/>
<path d="M72.8014 53.7806H76.5329V77.8021H89.1656V81.3003H72.8014V53.7806Z" fill="#376AED"/>
<path d="M107.119 53.7806V70.65C107.119 71.5052 107.236 72.3992 107.469 73.332C107.702 74.239 108.091 75.0812 108.635 75.8586C109.179 76.636 109.892 77.2708 110.773 77.7632C111.654 78.2555 112.742 78.5017 114.038 78.5017C115.334 78.5017 116.422 78.2555 117.303 77.7632C118.184 77.2708 118.897 76.636 119.441 75.8586C119.985 75.0812 120.374 74.239 120.607 73.332C120.84 72.3992 120.957 71.5052 120.957 70.65V53.7806H124.688V71.2331C124.688 72.8397 124.416 74.3038 123.872 75.6254C123.328 76.921 122.576 78.0482 121.617 79.007C120.659 79.9658 119.531 80.7043 118.236 81.2226C116.94 81.7409 115.541 82 114.038 82C112.535 82 111.136 81.7409 109.84 81.2226C108.544 80.7043 107.417 79.9658 106.458 79.007C105.499 78.0482 104.748 76.921 104.204 75.6254C103.66 74.3038 103.388 72.8397 103.388 71.2331V53.7806H107.119Z" fill="#376AED"/>
<path d="M142.196 53.7806H151.758C152.95 53.7806 154.052 53.9231 155.062 54.2081C156.099 54.4932 156.98 54.9207 157.705 55.4908C158.457 56.035 159.04 56.7476 159.455 57.6287C159.895 58.4838 160.115 59.4944 160.115 60.6605C160.115 62.2412 159.675 63.5369 158.794 64.5475C157.913 65.5322 156.773 66.2578 155.373 66.7242V66.8019C156.203 66.8538 156.98 67.074 157.705 67.4627C158.431 67.8255 159.053 68.3178 159.571 68.9398C160.115 69.5358 160.543 70.2354 160.854 71.0387C161.165 71.842 161.32 72.7101 161.32 73.643C161.32 74.8868 161.061 75.9881 160.543 76.9469C160.051 77.8798 159.364 78.6701 158.483 79.318C157.602 79.9658 156.578 80.4582 155.412 80.795C154.246 81.1319 152.989 81.3003 151.642 81.3003H142.196V53.7806ZM145.928 65.2083H151.02C151.72 65.2083 152.38 65.1435 153.002 65.0139C153.624 64.8584 154.168 64.6123 154.635 64.2754C155.101 63.9385 155.464 63.511 155.723 62.9927C156.008 62.4744 156.151 61.8396 156.151 61.0881C156.151 59.9997 155.801 59.0539 155.101 58.2506C154.402 57.4473 153.3 57.0456 151.797 57.0456H145.928V65.2083ZM145.928 78.0353H151.409C151.979 78.0353 152.601 77.9835 153.274 77.8798C153.974 77.7502 154.622 77.517 155.218 77.1801C155.814 76.8174 156.319 76.338 156.734 75.742C157.148 75.146 157.356 74.3556 157.356 73.3709C157.356 71.7384 156.824 70.5205 155.762 69.7172C154.7 68.8879 153.261 68.4733 151.447 68.4733H145.928V78.0353Z" fill="#376AED"/>
</svg>
